<?xml version="1.0" encoding="UTF-8"?>
<svg id="burger" xmlns="http://www.w3.org/2000/svg" width="5.72cm" height="6.61cm" viewBox="0 0 162.27 187.24">
  <defs>
    <style>
      .cls-1 {
        fill: #1d1d1b;
      }
    </style>
  </defs>
  <path class="cls-1" d="M15.03,106.59c44.07,1.37,88.14,2.74,132.21,4.11,7.85,.24,15.36-7.07,15-15-.37-8.34-6.59-14.74-15-15-44.07-1.37-88.14-2.74-132.21-4.11-7.85-.24-15.36,7.07-15,15,.37,8.34,6.59,14.74,15,15h0Z"/>
  <path class="cls-1" d="M15.01,173.2c44.08-.94,88.16-1.88,132.24-2.83,7.84-.17,15.37-6.78,15-15s-6.6-15.18-15-15c-44.08,.94-88.16,1.88-132.24,2.83-7.84,.17-15.37,6.78-15,15s6.6,15.18,15,15h0Z"/>
  <path class="cls-1" d="M15.01,46.91c44.08-.94,88.16-1.88,132.24-2.83,7.84-.17,15.37-6.78,15-15s-6.6-15.18-15-15c-44.08,.94-88.16,1.88-132.24,2.83C7.17,17.08-.36,23.69,.01,31.91s6.6,15.18,15,15h0Z"/>
</svg>