<?xml version="1.0" encoding="UTF-8"?>
<svg id="Calque_7" data-name="Calque 7" xmlns="http://www.w3.org/2000/svg" width="5.03cm" height="3.78cm" viewBox="0 0 142.68 107.07">
  <defs>
    <style>
      .cls-1 {
        fill: #1d1d1b;
      }
    </style>
  </defs>
  <path class="cls-1" d="M7.24,64.41c42.63-3.7,85.42-4.99,128.19-3.87,9.66,.25,9.65-14.75,0-14.99-42.77-1.12-85.56,.17-128.19,3.87-9.54,.83-9.63,15.82,0,14.99h0Z"/>
  <path class="cls-1" d="M7.02,17.16c42.7-2.64,85.52-2.87,128.24-.69,9.65,.49,10.01-14.5,.37-14.99C92.91-.7,50.09-.47,7.39,2.17c-9.55,.59-10.02,15.58-.37,14.99h0Z"/>
  <path class="cls-1" d="M7.02,107.05c42.7-2.64,85.52-2.87,128.24-.69,9.65,.49,10.01-14.5,.37-14.99-42.72-2.18-85.54-1.95-128.24,.69-9.55,.59-10.02,15.58-.37,14.99h0Z"/>
</svg>