<?xml version="1.0" encoding="UTF-8"?>
<svg id="Calque_1" data-name="Calque 1" xmlns="http://www.w3.org/2000/svg" width="5.62cm" height="5.94cm" viewBox="0 0 159.37 168.3">
  <defs>
    <style>
      .cls-1 {
        fill: #1d1d1b;
      }
    </style>
  </defs>
  <path class="cls-1" d="M128.88,7.43c-8.36,11.22-19.17,21.98-28.97,32.51-10.55,11.34-21.1,22.69-31.66,34.03-21.33,22.93-42.66,45.86-63.99,68.79-5.52,5.93-5.87,15.34,0,21.21s15.68,5.95,21.21,0c21.78-23.41,43.56-46.82,65.33-70.24,10.78-11.59,21.55-23.17,32.33-34.76s22-23.47,31.64-36.41c4.84-6.5,1.06-16.75-5.38-20.52-7.65-4.47-15.67-1.14-20.52,5.38h0Z"/>
  <path class="cls-1" d="M4.27,25.61c39.84,49.13,83.22,95.31,129.56,138.37,5.93,5.51,15.34,5.88,21.21,0s5.96-15.68,0-21.21C108.7,99.71,65.33,53.53,25.49,4.39,20.38-1.9,9.58-.92,4.27,4.39-1.95,10.62-.85,19.29,4.27,25.61h0Z"/>
</svg>