<?xml version="1.0" encoding="UTF-8"?>
<svg id="Calque_1" data-name="Calque 1" xmlns="http://www.w3.org/2000/svg" width="4.65cm" height="6.06cm" viewBox="0 0 131.83 171.89">
  <defs>
    <style>
      .cls-1 {
        fill: #1d1d1b;
      }
    </style>
  </defs>
  <path class="cls-1" d="M3.31,127.61c20.28,14.41,40.58,28.81,60.87,43.23,2.06,1.46,5.5,1.35,7.57,0,19.98-13.03,39.28-27.04,57.89-41.95,3.19-2.55,2.61-7.94,0-10.61-3.09-3.16-7.46-2.52-10.61,0-17.61,14.11-35.95,27.27-54.86,39.6h7.57c-20.29-14.41-40.58-28.82-60.87-43.23-7.89-5.6-15.39,7.4-7.57,12.95h0Z"/>
  <path class="cls-1" d="M76.99,161.11c.42-51.29,.84-102.58,1.26-153.87,.08-9.65-14.92-9.66-15,0-.42,51.29-.84,102.58-1.26,153.87-.08,9.65,14.92,9.66,15,0h0Z"/>
</svg>