<?xml version="1.0" encoding="UTF-8"?>
<svg id="Calque_1" data-name="Calque 1" xmlns="http://www.w3.org/2000/svg" width="4.65cm" height="6.07cm" viewBox="0 0 131.85 171.94">
  <defs>
    <style>
      .cls-1 {
        fill: #1d1d1b;
      }
    </style>
  </defs>
  <path class="cls-1" d="M128.55,44.29C108.26,29.88,87.96,15.47,67.66,1.05c-2.06-1.46-5.5-1.35-7.57,0C40.1,14.08,20.8,28.1,2.18,43.01c-3.19,2.55-2.61,7.94,0,10.61,3.09,3.16,7.46,2.52,10.61,0,17.62-14.11,35.96-27.28,54.88-39.61h-7.57c20.3,14.41,40.59,28.83,60.89,43.24,7.89,5.6,15.39-7.4,7.57-12.95h0Z"/>
  <path class="cls-1" d="M54.85,10.78c-.42,51.31-.84,102.61-1.26,153.92-.08,9.65,14.92,9.66,15,0,.42-51.31,.84-102.61,1.26-153.92,.08-9.65-14.92-9.66-15,0h0Z"/>
</svg>