<?xml version="1.0" encoding="UTF-8"?>
<svg id="plus" xmlns="http://www.w3.org/2000/svg" width="5.72cm" height="6.15cm" viewBox="0 0 162.27 174.36">
  <defs>
    <style>
      .cls-1 {
        fill: #1d1d1b;
      }
    </style>
  </defs>
  <path class="cls-1" d="M62.55,16.05c2.11,47.74,3.27,95.51,3.51,143.29,.04,7.84,6.87,15.36,15,15,8.09-.36,15.04-6.59,15-15-.23-47.78-1.4-95.56-3.51-143.29-.35-7.83-6.65-15.37-15-15-7.83,.35-15.37,6.6-15,15h0Z"/>
  <path class="cls-1" d="M15.01,102.49c44.08-.94,88.16-1.88,132.24-2.83,7.84-.17,15.37-6.78,15-15s-6.6-15.18-15-15c-44.08,.94-88.16,1.88-132.24,2.83-7.84,.17-15.37,6.78-15,15s6.6,15.18,15,15h0Z"/>
</svg>