<?xml version="1.0" encoding="UTF-8"?>
<svg id="Calque_1" data-name="Calque 1" xmlns="http://www.w3.org/2000/svg" width="8.56cm" height="2.88cm" viewBox="0 0 242.61 81.75">
  <defs>
    <style>
      .cls-1 {
        fill: #1d1d1b;
      }
    </style>
  </defs>
  <path class="cls-1" d="M53.48,10.3c19.59-3.6,39.5-5.37,59.42-5.3s38.08,1.63,56.71,5.36c17.37,3.47,34.46,8.94,49.99,17.56,3.87,2.15,7.67,4.47,11.29,7.03,2.94,2.08,6.05,4.76,6.62,8.53,.5,3.29-1.15,6.53-3.22,8.98-2.51,2.97-5.66,5.33-9.07,7.19-15.97,8.71-34.44,12.23-52.34,14.19-19.83,2.16-39.86,2.98-59.8,2.93-19.93-.06-40.03-.84-59.82-3.36-9.36-1.19-18.69-2.98-27.72-5.76-4.05-1.25-8.18-2.58-11.97-4.5-3.01-1.52-6.08-3.51-7.7-6.57-3.55-6.7,3.65-12.59,8.76-15.59,3.72-2.19,7.72-3.95,11.67-5.67,4.22-1.83,8.52-3.48,12.88-4.98,17.53-6.02,35.94-9.36,54.48-9.82,4.52-.11,9.04-.05,13.55,.18,3.22,.16,3.21-4.84,0-5-19.39-.96-38.95,1.18-57.69,6.25-9.37,2.53-18.52,5.82-27.38,9.78-7.36,3.29-16.08,7.03-20.28,14.39-1.98,3.48-2.5,7.72-.98,11.48s4.55,6.55,7.96,8.63c3.73,2.28,7.95,3.78,12.08,5.18,4.68,1.58,9.46,2.88,14.28,3.95,9.76,2.16,19.71,3.41,29.65,4.29,10.37,.92,20.77,1.5,31.18,1.84,21.17,.67,42.38,.2,63.49-1.42,19.14-1.47,38.61-3.76,56.61-10.78,8.18-3.19,16.86-7.05,22.41-14.16,2.48-3.18,4.34-7.12,4.02-11.25-.35-4.44-2.81-8.12-6.15-10.93s-7.4-5.31-11.28-7.6-8.07-4.48-12.26-6.42c-8.46-3.92-17.26-7.1-26.24-9.62C168.03,4.06,148.67,1.51,129.4,.47c-20.83-1.13-41.73-.21-62.39,2.62-4.97,.68-9.92,1.48-14.85,2.39-1.33,.24-2.08,1.85-1.75,3.08,.38,1.4,1.74,1.99,3.08,1.75h0Z"/>
</svg>