<?xml version="1.0" encoding="UTF-8"?>
<svg id="V2_Noir" data-name="V2 Noir" xmlns="http://www.w3.org/2000/svg" width="7.91cm" height="3.1cm" viewBox="0 0 224.24 88">
  <path d="M34.97,64.62c1.52-2.28,3.33-4.34,5.38-6.17,1.05-.94,2.16-1.81,3.34-2.6,.56-.38,1.14-.74,1.72-1.09,.47-.28,1.1-.46,1.54-.74,.33-.21,.36,.55-.49-.31-.32-.33-.03-.67-.33-.42-.06,.05-.18,.48-.21,.55-.19,.44-.45,.88-.67,1.31-.78,1.53-1.56,3.06-2.33,4.6-1.59,3.14-3.19,6.27-4.78,9.41l4.32,2.52c3.06-6.35,7.56-11.96,13.17-16.25,.67-.51,1.35-1,2.05-1.47,.16-.11,.93-.44,1-.63,.19-.06,.15-.08-.11-.07-.34-.04-.52-.18-.54-.41-.02,0-.48,1.25-.6,1.49-.5,1.05-.99,2.09-1.49,3.14-1.92,4.04-3.83,8.07-5.75,12.11-.58,1.22-.34,2.7,.9,3.42,1.13,.66,2.78,.3,3.42-.9,1.67-3.12,3.92-5.77,6.45-8.21s5.23-4.81,8.04-6.89c.63-.47,1.31-.94,2.03-1.25,.11-.05,.89-.23,.9-.28-.03,.15-.91-.8-.89-.8,.1,.03-.08,.64-.23,1.01-.33,.78-.81,1.51-1.25,2.23-1.83,2.94-4.06,5.73-4.93,9.15-.53,2.08-.27,4.53,1.8,5.66s4.65,.11,5.27-2.1c.87-3.1-3.96-4.43-4.82-1.33l.66-.56c.39-.7,.8-.74,1.24-.14l.58,.42v-.03s.12-.69,.14-.78c.22-.8,.53-1.53,.92-2.26,.76-1.45,1.7-2.81,2.61-4.18,1.67-2.53,4.17-6.08,2.51-9.2-2.1-3.94-7.06-1.42-9.63,.55-2.83,2.17-5.59,4.49-8.18,6.95-2.94,2.79-5.62,5.93-7.54,9.52l4.32,2.52c1.81-3.81,3.62-7.62,5.43-11.44,1.49-3.14,4.87-7.88,1.84-11.09s-7.32,.44-9.92,2.48-5.16,4.53-7.33,7.18c-2.51,3.05-4.67,6.35-6.39,9.9-.59,1.22-.33,2.7,.9,3.42,1.11,.65,2.81,.31,3.42-.9,2-3.94,4-7.88,6-11.82,.92-1.8,2.24-3.75,2.61-5.76,.4-2.15-.64-4.34-2.85-4.94-1.89-.52-3.75,.34-5.34,1.28s-3.2,2.09-4.68,3.29c-2.94,2.37-5.46,5.22-7.55,8.36-1.79,2.69,2.54,5.19,4.32,2.52h0Z"/>
  <path d="M77.12,59.19c1.2,6.16,10.41,3.98,13.19,.42,1.71-2.19,1.87-5.26-.12-7.35-2.18-2.28-5.68-1.91-8.16-.35-2.34,1.48-4.32,3.7-5.88,5.97s-2.67,4.85-2.67,7.55c0,2.48,1.29,5.34,3.53,6.58,2.53,1.41,5.41,1.24,7.95,0,2.82-1.37,5.44-3.44,7.84-5.44s4.76-4.36,6.82-6.85c.86-1.04,1.02-2.52,0-3.54-.89-.89-2.67-1.04-3.54,0-2.55,3.08-5.45,5.92-8.67,8.3-1.54,1.14-3.21,2.43-4.97,3.2-.72,.32-1.04,.4-1.76,.33,.33,.03-.13-.02-.16-.03-.19-.04-.37-.09-.56-.14-.22-.06-.45-.21-.59-.25,.09,.03,.3,.44,.06,.07-.12-.18-.25-.36-.38-.54-.19-.28-.37-.55-.44-.73-.19-.5-.17-1.28-.08-1.82,.29-1.65,1.15-3.15,2.12-4.49s2.29-2.84,3.73-3.78c.61-.4,1.32-.67,1.88-.73,.27-.03,.02,.01,.32,.11-.24-.08-.06-.04,.06,.08-.25-.25,.03,.3-.03,0,.01,.06,.14,.53,.13,.53-.29-.08,.34-1.08-.12-.25-.03,.06-.21,.43-.25,.48-.44,.54-1.08,.81-1.75,1.04-.82,.28-1.77,.57-2.38,.51-.18-.02-.13,.02-.38-.11,.16,.08,.1,.26-.06-.08,.08,.17,.22,.42,.13-.05-.26-1.33-1.84-2.08-3.08-1.75-1.38,.38-2.01,1.75-1.75,3.08h0Z"/>
  <path d="M109.11,60.55c2.63-1.05,3.63-3.87,2.24-6.39-1.54-2.79-4.98-2.94-7.62-1.78-4.76,2.09-8.39,7.02-9.89,11.89-.74,2.39-1.31,5.39,.79,7.27,2.64,2.37,6,.56,8.54-.94,4.4-2.61,8.21-6.14,11.47-10.06,3.8-4.56,6.97-9.58,10.07-14.63l-4.32-2.52c-2.08,3.76-4.17,7.53-6.18,11.32-1.89,3.56-3.81,7.29-3.97,11.4-.07,1.84,.14,4.06,1.7,5.27,1.93,1.5,4.18,.4,6-.69,3-1.8,5.66-4.19,8.01-6.78,2.72-2.99,5.1-6.26,7.45-9.54l-4.32-2.52c-2.41,3.45-4.53,7.38-5.63,11.47-1.24,4.58,2,9.26,7.01,8.31,3.86-.73,6.54-4.24,8.68-7.24,2.26-3.17,4.18-6.58,6-10.02l-4.32-2.52c-1.86,4.05-4.01,8.75-3.48,13.32,.27,2.33,1.24,5.64,3.41,6.92,2.76,1.64,5.66-.49,7.74-2.22,1.68-1.4,3.16-2.93,4.26-4.82,.55-.95,1.05-1.93,1.55-2.91,.84-1.62,1.81-3.23,1.97-5.09,.3-3.59-3.29-7.03-6.81-5.13-2.69,1.45-3.13,5.39-1.18,7.6,2.48,2.82,6.8,2.33,9.94,1.12,3.41-1.31,6.54-3.24,9.49-5.37l-3.42-3.42c-2.12,3.03-4.22,6.1-5.85,9.43-.8,1.63-1.62,3.39-2.02,5.18-.44,1.98,.26,3.99,1.78,5.33,3.08,2.73,7.03,.62,9.39-1.92,1.79-1.92,3.66-4.01,5.04-6.25,1.22-1.97,2.25-4.02,3.55-5.96l-4.57-1.93c-.95,3.05-1.65,6.17-1.76,9.37-.05,1.55-.15,3.4,.26,4.9,.59,2.14,2.5,2.74,4.49,2.39,3.24-.59,5.03-3.04,6.95-5.5,2.03-2.6,3.94-5.29,6.23-7.67l-3.54-3.54c-2.34,2.98-4.36,6.47-5.1,10.23-.35,1.82-.18,3.67,1.09,5.12,1.38,1.56,3.57,2.2,5.59,1.95,3.46-.42,6.82-2.36,9.49-4.51s4.69-4.89,5.9-8.05c.64-1.69,1.17-3.82,.62-5.59-.48-1.53-1.69-2.54-3.12-3.13-2.38-.99-4.12,2.56-2.43,4.18h0c.81-1.39,1.62-2.78,2.43-4.17-2.68-.82-5.43-1.11-8.11-.04-3.41,1.36-6.29,5.48-4.39,9.11,1.66,3.17,5.48,3.38,8.64,3.31,4.3-.1,8.6-.7,12.78-1.73,3.12-.77,1.8-5.59-1.33-4.82s-6.02,1.24-9.09,1.44c-1.4,.09-2.82,.16-4.23,.11-.77-.03-1.67-.06-2.23-.49-.07-.05-.12-.02-.12-.18,0-.36,.07-.58,.3-.9,.57-.79,1.08-1.12,1.8-1.32,1.72-.48,2.97-.19,4.65,.32,2.39,.73,4.21-2.46,2.43-4.18h0c-.81,1.39-1.62,2.78-2.43,4.17-1.37-.57-.39-.11-.3-.1,.2,.14,.19,.12-.06-.06l.16,.16c.05-.62-.14,.2-.17,.42-.2,1.28-.7,2.5-1.34,3.61-1.41,2.44-3.56,4.38-6,5.77-1.22,.69-2.5,1.24-3.86,1.6-.49,.13-1.22,.27-1.67-.08-.23-.17-.17-.18-.17-.39,0-.96,.68-2.68,1.17-3.78,.7-1.57,1.59-3.11,2.66-4.46,.83-1.06,1.04-2.5,0-3.54-.94-.94-2.6-.98-3.54,0-2.13,2.22-3.95,4.7-5.82,7.14-.85,1.11-1.72,2.2-2.65,3.24-.25,.28-.51,.54-.75,.82l-.31,.32c.21-.16,.22-.18,.04-.07-.17,.08-.33,.14-.5,.2l-.38,.11c-.59,.07-.52,.15,.21,.26l.9,.9c-.23-.31-.13-2.02-.12-2.67,0-.95,.05-1.9,.16-2.84,.25-2.05,.83-4.06,1.44-6.03,.87-2.82-3.04-4.19-4.57-1.93-1.26,1.87-2.29,3.83-3.44,5.77s-2.83,3.84-4.63,5.69c-.48,.49-1.64,1.74-2.31,1.45s.59-2.81,.89-3.47c1.66-3.63,3.94-6.94,6.22-10.2,1.4-2.01-1.41-4.87-3.42-3.42-1.86,1.34-3.78,2.59-5.8,3.67-1.67,.89-3.59,1.89-5.52,1.97-.72,.03-1.33-.01-1.9-.43,.09,.06,.07,.16,.13,.24-.1-.13,0-.4-.04-.08,.11-.72-.02-.08-.02-.09,.54-.53-.24,.04-.11,.02l.08-.08c.22-.21,.09-.14-.41,.21-.04,.03-.28-.03-.29-.03,0,0,0,.08-.02,.1-.16,.26-.14,.81-.27,1.13-.24,.58-.59,1.12-.87,1.68-.74,1.43-1.44,2.89-2.34,4.22,.01-.02-.42,.56-.2,.28,.19-.24-.11,.13-.16,.18-.21,.23-.42,.47-.65,.7-.63,.64-1.31,1.23-2.01,1.8-.36,.29-.72,.57-1.12,.81-.36,.23-.69,.3-.84,.42-.26,.22-.26-.21,.03,0,.01,.01,.59,.16,.12,0,.19,.06,.32,.2,.49,.26-.32-.12,.08,.22-.12-.14-.64-1.12-1.17-2.86-1.08-4.49s.7-3.26,1.16-4.85c.08-.28,.17-.56,.26-.84,.06-.16,.38-.96,.13-.38,.41-.97,.86-1.91,1.3-2.87,.56-1.23,.35-2.69-.9-3.42-1.13-.66-2.79-.3-3.42,.9-1.41,2.68-2.89,5.33-4.54,7.87-1.46,2.25-3.14,5.01-5.48,6.44-.69,.42-1.68,.97-2.31,.34-.83-.82-.1-2.3,.21-3.2,1.09-3.19,2.78-6.18,4.71-8.93,.77-1.11,.2-2.78-.9-3.42-1.26-.73-2.63-.2-3.42,.9-2.1,2.94-4.23,5.86-6.67,8.53-1.25,1.38-2.58,2.69-4.02,3.89-.59,.49-1.2,.95-1.84,1.38-.7,.47-1.7,.83-2.32,1.39-.64,.27-.25,.6,1.15,.98-.03-.12-.07-.25-.11-.37,.07-.4-.06-.9-.06-1.32,.02-.96,.21-1.89,.48-2.81,.57-1.99,1.52-3.82,2.48-5.64,2.12-4.02,4.33-7.99,6.53-11.97,1.56-2.82-2.63-5.27-4.32-2.52-3.88,6.32-7.85,12.7-13.23,17.88-1.28,1.23-2.63,2.4-4.08,3.43s-3.17,2.34-4.87,2.89c-.05,.02-.35,.12-.35,.13-.21,.21-.09-.32-.06,.03,0-.05,.39,.46,.35,.45,.08,.02-.1,.1-.01-.17,.13-.46,.24-1.48,.46-2.23,.5-1.69,1.31-3.27,2.36-4.7,1.11-1.51,2.57-2.91,4.2-3.85,.56-.32,1.37-.56,1.83-.64-.02,0-.1-.13-.09-.14l.13,.23c-.05-.05-.07-.12-.05-.19,0,0,.05-.03,0,.17,.11-.47,.3-.75,.79-.94-1.25,.5-2.13,1.67-1.75,3.08,.33,1.19,1.81,2.25,3.08,1.75h0Z"/>
  <path d="M178.68,50.96s0-.01,0-.02l-.09,.66c0-.06,.02-.11,.05-.16l-.25,.6c.03-.07,.07-.13,.11-.19l-.39,.51c.05-.07,.12-.13,.18-.18l-.51,.39c.09-.07,.19-.13,.29-.17l-.6,.25s.05-.02,.07-.03c.33-.08,.61-.23,.85-.45,.27-.18,.49-.41,.64-.7,.18-.29,.28-.6,.3-.93,.07-.33,.06-.66-.04-1l-.25-.6c-.22-.38-.52-.67-.9-.9l-.6-.25c-.44-.12-.89-.12-1.33,0-.25,.09-.5,.19-.74,.31-.05,.02-.09,.05-.14,.08-.02,.01-.04,.03-.06,.04-.09,.07-.19,.15-.28,.22s-.19,.14-.28,.22c-.04,.03-.07,.06-.1,.1-.17,.19-.32,.4-.47,.6-.03,.04-.05,.07-.07,.11-.11,.23-.22,.46-.29,.7,0,.02-.01,.04-.02,.06-.05,.24-.07,.48-.1,.72-.01,.34,.06,.67,.22,.96,.1,.31,.27,.58,.52,.8,.23,.24,.49,.42,.8,.52,.3,.16,.62,.23,.96,.22l.66-.09c.42-.12,.79-.33,1.1-.64l.39-.51c.23-.39,.34-.81,.34-1.26h0Z"/>
  <path d="M79.29,32.43c4.03,.74,8.1-.29,11.2-3,1.51-1.32,2.79-3.18,3.13-5.18,.44-2.59-.94-4.85-3.35-5.81-4.19-1.67-8.62,1.03-10.74,4.63s-3.64,8.78-1.39,12.58c1.88,3.17,5.85,4.26,9.32,4.15,4.37-.15,8.47-2.07,11.69-4.97s5.47-6.54,6.68-10.54c.71-2.36,.44-5.38-2.29-6.27-2.36-.78-4.06,.81-5.28,2.64-1.41,2.12-1.88,5,.02,7.01s4.64,1.33,6.94,.48c4.83-1.79,9.24-4.3,13.3-7.45l-3.93-3.03c-1.79,2.6-3.55,5.23-5.03,8.02s-3.41,6.26-2.85,9.47c.62,3.5,4.12,5.21,7.36,3.99,2.72-1.02,5.26-2.8,7.54-4.58s4.12-3.65,5.69-5.93c1.45-2.11,2.83-4.93,2.9-7.55,.04-1.43-.55-2.8-1.86-3.48-1.74-.9-3.66,.05-4.9,1.35-2.02,2.14-2.61,5.84,.13,7.68s6.74,.43,9.52-.64c3.24-1.25,6.16-2.99,8.79-5.27l-3.93-3.03c-2.09,3.34-4.18,6.71-5.74,10.34-1.31,3.06-3.28,7.86,.27,10.26s7.77-1.22,10.44-3.53c1.41-1.22,2.74-2.54,3.97-3.93,.09-.1,.37-.33,.4-.46,.07-.31,0-.04-.34-.01,.42-.04,.85-.02,1.27-.04,1.03-.05,2.06-.15,3.08-.34,3.38-.63,7.49-3.44,7.43-7.27-.05-3.55-3.78-6.41-7.19-5.61-6.78,1.6-9.12,10.81-6.23,16.46,1.76,3.44,5.09,5.43,8.96,5.32,2.07-.06,4.02-.93,5.88-1.75,2.02-.89,3.95-1.97,5.74-3.28,1.09-.79,1.63-2.17,.9-3.42-.63-1.07-2.32-1.7-3.42-.9-2.27,1.65-4.78,3.01-7.44,3.94-1.62,.56-3.59,.69-4.99-.61-2.76-2.56-2.46-7.66,.34-10.21,.25-.22,.34-.29,.79-.48,.21-.09,.43-.13,.65-.21,.56-.2,.29-.02,.12-.05,.23,.04,.93,.65,.91,.99,.02-.38-.31,.41-.42,.54-.29,.35-.69,.66-1.07,.9-1.08,.68-2.34,.88-3.6,.96-1.39,.08-2.8-.03-4.02,.76s-2.06,2.12-3.06,3.12c-.91,.92-1.87,1.79-2.87,2.61-.92,.77-1.98,1.76-3.12,2.2-.82,.31-.26,.1-.33,.18,.34-.37-.04,1.07,.16,.01,.03-.18,.09-.65,.17-.94,.39-1.49,1.02-2.93,1.68-4.32,1.44-3.02,3.22-5.86,5-8.69,1.58-2.52-1.86-4.81-3.93-3.03-2.31,2-5.04,3.53-7.95,4.46-.72,.23-1.46,.44-2.2,.61-.24,.06-1.61,.11-1.73,.25-.03,.04,.06,.24,.18,.34,.23,.18-.34,.35,.13-.1,.09-.08,.57-.48,.31-.49l-1.26-.34c-1.9-.92-.3-1.49-.63-.87-.18,.34-.2,.87-.31,1.24-.2,.67-.45,1.3-.76,1.93-.64,1.24-1.43,2.39-2.36,3.43-2.11,2.36-4.68,4.22-7.42,5.79-.58,.33-2.39,1.48-2.66,1.07-.37-.57,.16-1.69,.34-2.22,.3-.85,.66-1.68,1.04-2.49,1.61-3.39,3.7-6.53,5.83-9.62,.7-1.01,.29-2.53-.64-3.23-1.08-.81-2.27-.59-3.28,.2-2.24,1.74-4.7,3.23-7.25,4.49-1.12,.56-2.27,1.07-3.44,1.52-.67,.26-1.35,.5-2.03,.72-1.03,.34-.16,.01-.32,.36,.16-.34,.95-1.22,.98-1.6l-1.66-.59-.02,.06c-.17,.2-.26,.95-.35,1.22-.18,.56-.39,1.11-.63,1.64-1.1,2.4-2.68,4.55-4.64,6.31-2.99,2.67-8.54,4.96-12.24,2.7-1.79-1.09-1.42-3.41-.81-5.35,.66-2.1,1.64-4.58,3.84-5.45,.54-.21,2.09-.47,2.35,.04,.28,.57-1.2,2.12-1.67,2.54-1.68,1.52-4.24,2.24-6.47,1.83-1.33-.24-2.7,.36-3.08,1.75-.33,1.21,.41,2.83,1.75,3.08h0Z"/>
  <path d="M18.24,30.35c-1.01,3.19,2.67,4.61,5.18,3.93,1.29-.35,2.52-1.2,3.66-1.87,1.26-.75,2.49-1.54,3.69-2.38,4.62-3.25,8.77-7.1,12.24-11.56l-4.18-2.43c-3.03,15.58-14.15,27.85-20.23,42.19-1.74,4.1-3.11,8.33-3.73,12.76-.19,1.34,.33,2.69,1.75,3.08,1.28,.35,2.75-.43,3.08-1.75,3.97-15.91,14.34-29.3,26.51-39.94,1.74-1.52,3.52-2.99,5.35-4.41,1.66-1.29,3.55-2.82,5.74-2.94l-2.41-1.84c.64,2.8-1.63,5.59-2.63,8.03-1.16,2.8-.66,5.39,1,7.87,.78,1.17,2.15,1.54,3.42,.9,3.23-1.65,6.34-3.47,9.18-5.73s5.04-4.89,6.98-7.83c1.78-2.71-2.51-5.15-4.32-2.52s-3.52,5.72-4.56,8.86c-.84,2.53-.55,5.87,2.11,7.18,2.96,1.45,6.6-.91,9.04-2.5,2.66-1.73,5.05-3.86,7.02-6.36,.83-1.06,1.04-2.5,0-3.54-.87-.87-2.7-1.07-3.54,0-1.35,1.73-2.9,3.33-4.66,4.65-.93,.69-1.91,1.32-2.92,1.88-.48,.27-.97,.52-1.46,.76-.18,.09-1.4,.48-1.45,.58-.07,.13,.05-.09,.25,.09,.03,.03,.15,.17,.18,.17,.17,.02-.08,.12-.02-.16-.05,.21,.01-.11,.01-.2,0-.65,.38-1.61,.7-2.39,.95-2.3,2.21-4.47,3.61-6.51l-4.32-2.52c-3.57,5.44-8.66,8.86-14.36,11.77l3.42,.9c-.47-.7-1.09-1.7-1.05-2.3,.09-1.22,.95-2.42,1.48-3.48,1.41-2.84,2.45-5.74,1.71-8.93-.23-1.01-1.36-1.89-2.41-1.84-4.84,.27-8.58,3.76-12.14,6.7s-6.74,5.89-9.83,9.13c-6.08,6.37-11.46,13.53-15.37,21.44-2.16,4.37-3.9,8.96-5.08,13.7l4.82,1.33c2.21-15.75,13.29-28.18,19.71-42.26,1.86-4.07,3.4-8.28,4.25-12.69,.21-1.1-.14-2.23-1.15-2.82-.87-.51-2.36-.47-3.03,.39-2.61,3.36-5.59,6.39-8.91,9.05-1.57,1.26-3.23,2.4-4.93,3.46-.95,.59-1.92,1.16-2.9,1.69-.08,.04-1.14,.49-.53,.34-.32-.02-.37,0-.15,.06-.6-.18-.36,.03,.7,.61l.34,1.26-.03,.28c.98-3.07-3.85-4.39-4.82-1.33h0Z"/>
  <path d="M75.7,19.43v-.52c.01-.34-.06-.67-.22-.96-.1-.31-.27-.58-.52-.8-.23-.24-.49-.42-.8-.52-.3-.16-.62-.23-.96-.22l-.66,.09c-.42,.12-.79,.33-1.1,.64l-.39,.51c-.23,.39-.34,.81-.34,1.26v.52c-.01,.34,.06,.67,.22,.96,.1,.31,.27,.58,.52,.8,.23,.24,.49,.42,.8,.52,.3,.16,.62,.23,.96,.22l.66-.09c.42-.12,.79-.33,1.1-.64l.39-.51c.23-.39,.34-.81,.34-1.26h0Z"/>
</svg>